<svg width="1440" height="376" viewBox="0 0 1440 376" fill="none" xmlns="http://www.w3.org/2000/svg">
<path d="M1792 219.949V749H-377V219.949C-377 219.949 -225.624 121.27 -116.068 92.9372C125.187 30.5459 262.86 257.539 509.083 219.949C703.912 190.206 775.195 45.4095 969.174 10.4293C1295.39 -48.3966 1792 219.949 1792 219.949Z" fill="#B7E0FF" stroke="black" stroke-width="3"/>
<path d="M-377 219.949V749H1792V219.949C1792 219.949 1640.62 121.27 1531.07 92.9372C1289.81 30.5459 1152.14 257.539 905.917 219.949C711.088 190.206 639.805 45.4095 445.826 10.4293C119.614 -48.3966 -377 219.949 -377 219.949Z" fill="#FFCFB3" stroke="black" stroke-width="3"/>
</svg>
