<svg width="1440" height="475" viewBox="0 0 1440 475" fill="none" xmlns="http://www.w3.org/2000/svg">
<path d="M-1684 351.914C-1442.37 242.117 -1250.78 553.747 -964.419 501.617C-678.061 449.486 -617.654 190.678 -254.288 135.549C109.078 80.4198 301.395 457.289 508 330.182C744.5 184.682 1034.54 475.799 990.5 566.682C946.463 657.564 912.587 1079.9 183.319 1082.67C-545.949 1085.43 -479.777 735.512 -939.518 815.554C-1399.26 895.595 -1580.94 906.667 -1616.68 752.351C-1652.42 598.035 -1751.33 634.019 -1737.72 523.761C-1726.84 435.554 -1697.38 372.443 -1684 351.914Z" fill="#FFCFB3" stroke="black" stroke-width="3"/>
<path d="M-799.578 1135.65C-610.903 948.987 -323.268 1175.02 -72.6651 1026.97C177.938 878.929 145.011 615.213 466.821 437.696C788.632 260.18 1099.53 547.165 1249.35 356.391C1420.86 138.013 1793.74 310.718 1783.89 411.226C1774.04 511.734 1888.47 919.678 1205.26 1174.75C522.043 1429.81 462.981 1078.62 59.3799 1312.88C-344.221 1547.13 -510.836 1620.41 -597.787 1488.01C-684.738 1355.61 -765.075 1423.61 -790.485 1315.46C-810.812 1228.94 -805.017 1159.53 -799.578 1135.65Z" fill="#B7E0FF" stroke="black" stroke-width="3"/>
</svg>
